# xmcd
#
# Track frame offsets:
#	150
#	13396
#	23709
#	35323
#	46935
#	60282
#	71901
#	80942
#	92289
#	101624
#	116786
#	128872
#	143058
#	153655
#	166217
#	177474
#	191476
#	202809
#	213161
#	224567
#	237799
#	252414
#	264433
#	277132
#	290601
#	299431
#	312365
#
# Disc length: 4307 seconds
#
# Revision: 3
# Processed by: cddbd v1.5.2PL0 Copyright (c) Steve Scherf et al.
# Submitted via: EasyCDDAExtractor 12.0.5.1
#
DISCID=9a10d11b
DTITLE=Merle Haggard - Untamed Hawk [CD 3]
DYEAR=1995
DGENRE=Country
TTITLE0=Mary's Mine
TTITLE1=If You Want to Be My Woman
TTITLE2=Someone Told My Story
TTITLE3=Piedras Negras (Go Home)
TTITLE4=Whatever Happened To Me
TTITLE5=Loneliness Is Eating me Alive
TTITLE6=Skid Row
TTITLE7=Drink Up And Be Somebody
TTITLE8=Gone Crazy
TTITLE9=I Threw Away the Rose
TTITLE10=Some Of Us Never Learn
TTITLE11=Branded Man
TTITLE12=You Don't Have Very Far to Go
TTITLE13=Wine Take Me Away
TTITLE14=If You See My Baby
TTITLE15=Somewhere Between
TTITLE16=Don't Get Married
TTITLE17=My Hands Are Tied
TTITLE18=I Made the Prison Band
TTITLE19=Look Over Me
TTITLE20=Long Black Limousine
TTITLE21=I'll Leave the Bottle on the Bar
TTITLE22=Sing Me Back Home
TTITLE23=The Son of Hickory Holler's Tramp
TTITLE24=Seeing Eye Dog
TTITLE25=Will You Visit Me on Sundays
TTITLE26=Home Is Where a Kid Grows Up
EXTD=YEAR: 1995
EXTT0=
EXTT1=
EXTT2=
EXTT3=
EXTT4=
EXTT5=
EXTT6=
EXTT7=
EXTT8=
EXTT9=
EXTT10=
EXTT11=
EXTT12=
EXTT13=
EXTT14=
EXTT15=
EXTT16=
EXTT17=
EXTT18=
EXTT19=
EXTT20=
EXTT21=
EXTT22=
EXTT23=
EXTT24=
EXTT25=
EXTT26=
PLAYORDER=
